<svg width="28" height="24" viewBox="0 0 28 24" fill="none" xmlns="http://www.w3.org/2000/svg">
<path d="M27.9439 0.504506C27.9228 0.399326 27.8759 0.301603 27.8078 0.220837C27.7396 0.140071 27.6526 0.079012 27.555 0.0435955C27.1841 -0.034946 26.7997 -0.00699208 26.4429 0.124457C26.4429 0.124457 1.90237 9.28607 0.502495 10.3049C0.19919 10.5273 0.113642 10.6526 0.0475368 10.8022C-0.193552 11.5259 0.560823 11.8413 0.560823 11.8413L6.88357 13.9841C6.98833 14.0107 7.09768 14.0107 7.20243 13.9841C8.64119 13.0421 21.6755 4.48289 22.426 4.19583C22.5466 4.15945 22.6321 4.19583 22.6088 4.28478C22.3094 5.3845 10.9899 15.8439 10.9899 15.8439C10.9617 15.8826 10.9382 15.9247 10.9199 15.9693L10.3133 22.4584C10.3133 22.4584 10.0683 24.4557 11.9892 22.4584C13.3424 21.0474 14.6567 19.8708 15.31 19.2967C17.4993 20.8573 19.8324 22.5837 20.8356 23.4853C21.0044 23.6565 21.2048 23.7902 21.4247 23.8785C21.6446 23.9667 21.8794 24.0077 22.115 23.9988C23.0754 23.9624 23.3398 22.8668 23.3398 22.8668C23.3398 22.8668 27.8117 4.15945 27.9633 1.65274C27.9633 1.41016 27.9944 1.24843 27.9983 1.08267C28.006 0.888255 27.9876 0.693678 27.9439 0.504506Z" fill="#E0E0E0"/>
</svg>
