<svg width="28" height="28" viewBox="0 0 28 28" fill="none" xmlns="http://www.w3.org/2000/svg">
<path fill-rule="evenodd" clip-rule="evenodd" d="M23.9306 4.06202C21.5381 1.68312 18.3589 0.250196 14.9843 0.0298116C11.6098 -0.190573 8.26964 0.816591 5.58535 2.86394C2.90106 4.91128 1.05537 7.85941 0.391649 11.1599C-0.272077 14.4603 0.291352 17.8884 1.97712 20.8063L0 28L7.39384 26.0549C9.43848 27.1634 11.7297 27.7442 14.0581 27.7439C16.8142 27.7428 19.5083 26.929 21.8001 25.4052C24.092 23.8815 25.8788 21.716 26.9351 19.1822C27.9914 16.6485 28.2697 13.8601 27.735 11.169C27.2003 8.47791 25.8764 6.00485 23.9306 4.06202ZM14.0646 25.413C11.9867 25.4095 9.94813 24.8496 8.16254 23.7921L7.7391 23.5392L3.3484 24.703L4.52099 20.4464L4.23436 20.0088C2.86828 17.8425 2.26411 15.2859 2.51678 12.7407C2.76945 10.1955 3.86464 7.80598 5.63024 5.94769C7.39585 4.0894 9.73177 2.86767 12.2709 2.4745C14.8101 2.08133 17.4085 2.539 19.6579 3.7756C21.9072 5.0122 23.68 6.95762 24.6976 9.30613C25.7152 11.6546 25.92 14.2731 25.2797 16.7501C24.6394 19.227 23.1904 21.422 21.1603 22.99C19.1303 24.5581 16.6343 25.4104 14.0646 25.413ZM20.4226 16.7766C20.0741 16.6016 18.3608 15.7619 18.0416 15.6485C17.7224 15.535 17.4911 15.4734 17.2566 15.8203C17.0221 16.1672 16.3576 16.9485 16.1557 17.1754C15.9538 17.4023 15.7485 17.4347 15.4 17.2597C14.3726 16.858 13.4236 16.2809 12.5956 15.5545C11.829 14.8537 11.1705 14.0442 10.6413 13.1522C10.4393 12.8053 10.6217 12.6173 10.7944 12.4423C10.967 12.2672 11.1429 12.037 11.3188 11.836C11.4612 11.6606 11.5785 11.4664 11.6673 11.259C11.713 11.1628 11.7343 11.0569 11.7292 10.9506C11.724 10.8443 11.6927 10.7409 11.638 10.6495C11.55 10.4777 10.853 8.76922 10.5631 8.07546C10.2732 7.3817 9.99308 7.49192 9.77811 7.47895C9.56313 7.46599 9.35793 7.44978 9.12015 7.44978C8.94389 7.45396 8.77042 7.49443 8.61065 7.56864C8.45088 7.64285 8.30829 7.74918 8.19185 7.88095C7.79732 8.25254 7.48494 8.70189 7.27464 9.20034C7.06433 9.6988 6.96072 10.2354 6.9704 10.7759C6.9704 12.4812 8.22117 14.1313 8.3938 14.3614C8.56643 14.5916 10.853 18.0961 14.348 19.5971C14.9972 19.8749 15.6604 20.1195 16.3348 20.3297C17.0463 20.543 17.7977 20.5896 18.5302 20.4659C19.1979 20.3654 20.592 19.6262 20.8819 18.8158C21.1718 18.0053 21.1718 17.3116 21.0838 17.1689C20.9959 17.0263 20.7711 16.9485 20.4226 16.7766Z" fill="#E0E0E0"/>
</svg>
