<svg width="736" height="523" viewBox="0 0 736 523" fill="none" xmlns="http://www.w3.org/2000/svg">
<path opacity="0.1" fill-rule="evenodd" clip-rule="evenodd" d="M372.622 10.4505C362.508 42.2299 284.288 279.534 283.715 280.178C283.34 280.599 259.89 239.146 231.603 188.061C203.316 136.975 179.551 94.3361 178.793 93.3065C177.608 91.6982 177.165 92.5122 175.663 99.0696C174.7 103.269 163.404 153.203 150.56 210.035C137.715 266.866 127.045 313.525 126.847 313.722C126.649 313.918 98.6671 277.725 64.6629 233.293C20.2866 175.307 2.37306 152.683 1.19102 153.134C0.149804 153.53 -0.236073 154.617 0.142047 156.084C0.471376 157.363 23.8394 239.957 52.0708 339.628C93.5664 486.132 103.749 520.852 105.222 520.862C106.224 520.869 107.254 520.257 107.512 519.5C107.77 518.744 115.183 486.075 123.987 446.903C132.79 407.731 140.241 375.705 140.546 375.735C140.851 375.764 162.804 404.201 189.333 438.93C215.86 473.657 237.888 501.723 238.285 501.297C238.682 500.873 250.388 465.981 264.299 423.763C286.847 355.329 289.739 347.275 290.96 349.51C317.751 398.579 375.526 501.221 376.269 501.067C376.829 500.952 395.226 466.245 417.151 423.943C440.55 378.794 457.333 347.604 457.784 348.423C458.206 349.19 469.369 384.215 482.59 426.258C495.811 468.301 506.755 502.826 506.912 502.98C507.068 503.135 529.362 473.361 556.453 436.817C593.513 386.825 605.918 370.822 606.548 372.194C607.008 373.197 616.096 407.142 626.745 447.627C637.392 488.111 646.612 521.74 647.234 522.357C647.856 522.974 648.661 523.184 649.025 522.824C649.734 522.12 735.999 158.226 736 155.932C736.001 155.177 735.378 154.567 734.615 154.58C733.853 154.594 707.318 189.562 675.651 232.289C630.636 293.024 617.906 309.521 617.312 307.895C616.892 306.751 603.909 257.705 588.458 198.903C573.007 140.102 560.025 92.2009 559.608 92.4572C559.19 92.7124 537.46 134.264 511.317 184.792C485.175 235.321 463.535 276.654 463.227 276.645C462.92 276.634 444.97 220.078 423.337 150.964C401.706 81.8494 382.193 19.6084 379.977 12.6506L375.947 0L372.622 10.4505ZM348.513 166.935C333.966 211.253 318.68 255.971 314.546 266.311C305.517 288.886 303.333 296.747 303.263 306.915C303.168 320.582 307.716 331.513 324.318 357.517C328.566 364.172 335.185 375.31 339.023 382.268C351.192 404.318 374.768 446.607 375.101 446.98C375.651 447.595 382.173 435.251 413.744 373.851C448.385 306.476 446.582 311.72 441.129 294.22C409.413 192.439 376.382 87.8216 375.761 87.1814C375.323 86.7292 363.061 122.618 348.513 166.935ZM187.118 164.338C187.118 164.878 178.635 203.442 168.268 250.036C157.9 296.631 149.417 336.798 149.417 339.296C149.417 343.53 151.383 346.424 178.45 382.028C213.774 428.496 228.176 447.171 228.685 447.171C228.896 447.171 233.405 434.178 238.703 418.295C244.002 402.414 252.031 380.203 256.545 368.94C261.059 357.677 265.747 344.604 266.963 339.888C269.451 330.237 269.882 315.76 267.922 307.677C265.835 299.075 258.913 285.498 247.756 268.126C241.928 259.05 227.576 234.364 215.863 213.267C189.576 165.922 188.124 163.358 187.567 163.358C187.32 163.358 187.118 163.799 187.118 164.338ZM548.967 168.898C539.89 184.951 476.485 309.61 475.886 312.581C475.101 316.474 474.394 314.035 498.336 389.969C507.779 419.918 515.904 444.829 516.391 445.328C516.879 445.827 531.484 427.016 548.846 403.526C596.172 339.499 596.285 339.336 596.285 335.553C596.285 333.721 587.483 298.31 576.725 256.864C565.968 215.419 556.086 177.319 554.766 172.198L552.366 162.887L548.967 168.898ZM61.4284 274.197C60.8607 275.109 100.014 415.028 101.153 416.158C101.393 416.395 103.369 411.012 105.544 404.195C110.919 387.355 117.26 358.683 117.26 351.22V345.114L99.9112 322.164C64.2926 275.047 62.3832 272.666 61.4284 274.197ZM674.801 280.19C659.444 297.826 632.448 333.265 629.962 339.056C629.126 341.003 628.442 344.618 628.442 347.09C628.442 350.513 639.12 394.588 644.628 413.895C645.206 415.921 648.402 417.596 648.402 415.873C648.402 415.599 655.885 383.586 665.031 344.733C674.178 305.88 681.474 273.905 681.246 273.679C681.017 273.452 678.118 276.383 674.801 280.19Z" fill="#FFC915"/>
</svg>
