<svg width="68" height="58" viewBox="0 0 68 58" fill="none" xmlns="http://www.w3.org/2000/svg">
<path fill-rule="evenodd" clip-rule="evenodd" d="M35.6718 0.744208C34.9523 3.0073 29.3883 19.9064 29.3475 19.9522C29.3208 19.9822 27.6527 17.0302 25.6406 13.3923C23.6284 9.75437 21.9379 6.71792 21.884 6.6446C21.7997 6.53007 21.7682 6.58804 21.6613 7.05501C21.5928 7.35403 20.7893 10.91 19.8757 14.9572C18.962 19.0042 18.2029 22.3269 18.1889 22.341C18.1748 22.3549 16.1843 19.7775 13.7655 16.6134C10.6088 12.484 9.33455 10.873 9.25047 10.9051C9.17641 10.9333 9.14896 11.0107 9.17585 11.1152C9.19928 11.2062 10.8615 17.0879 12.8697 24.1858C15.8215 34.6187 16.5458 37.0912 16.6506 37.0919C16.7219 37.0925 16.7951 37.0489 16.8135 36.995C16.8318 36.9411 17.3592 34.6147 17.9854 31.8251C18.6116 29.0356 19.1417 26.755 19.1633 26.7571C19.185 26.7591 20.7466 28.7842 22.6337 31.2574C24.5207 33.7304 26.0877 35.729 26.1159 35.6987C26.1441 35.6685 26.9768 33.1838 27.9663 30.1773C29.5703 25.3039 29.776 24.7303 29.8629 24.8895C31.7686 28.3838 35.8783 35.6933 35.9312 35.6823C35.971 35.6741 37.2797 33.2026 38.8393 30.1901C40.5038 26.9749 41.6976 24.7538 41.7297 24.8121C41.7597 24.8667 42.5538 27.361 43.4942 30.355C44.4347 33.349 45.2132 35.8076 45.2243 35.8186C45.2355 35.8296 46.8213 33.7093 48.7484 31.1069C51.3846 27.5468 52.267 26.4072 52.3118 26.5049C52.3446 26.5764 52.991 28.9936 53.7485 31.8767C54.5059 34.7597 55.1617 37.1545 55.206 37.1984C55.2502 37.2423 55.3075 37.2573 55.3334 37.2317C55.3839 37.1816 61.5202 11.2677 61.5203 11.1044C61.5203 11.0505 61.476 11.0071 61.4217 11.0081C61.3676 11.009 59.48 13.4992 57.2274 16.5419C54.0253 20.867 53.1198 22.0418 53.0775 21.926C53.0477 21.8445 52.1241 18.3518 51.025 14.1644C49.926 9.97701 49.0025 6.56587 48.9728 6.58412C48.9431 6.6023 47.3973 9.56127 45.5377 13.1596C43.6781 16.7578 42.1387 19.7013 42.1169 19.7006C42.095 19.6998 40.8182 15.6723 39.2794 10.7505C37.7406 5.82871 36.3526 1.39637 36.195 0.900883L35.9083 0L35.6718 0.744208ZM33.9568 11.8879C32.922 15.0439 31.8347 18.2284 31.5406 18.9647C30.8984 20.5723 30.743 21.1321 30.738 21.8562C30.7312 22.8295 31.0548 23.6079 32.2357 25.4597C32.5379 25.9337 33.0087 26.7268 33.2818 27.2223C34.1474 28.7925 35.8245 31.8041 35.8481 31.8306C35.8873 31.8744 36.3512 30.9954 38.5969 26.6229C41.0611 21.8249 40.9329 22.1984 40.545 20.9522C38.2888 13.7041 35.9392 6.25401 35.8951 6.20842C35.8639 6.17622 34.9917 8.73199 33.9568 11.8879ZM22.4762 11.7029C22.4762 11.7414 21.8728 14.4876 21.1353 17.8058C20.3978 21.1239 19.7944 23.9842 19.7944 24.1622C19.7944 24.4637 19.9342 24.6698 21.8596 27.2053C24.3723 30.5143 25.3968 31.8443 25.433 31.8443C25.448 31.8443 25.7688 30.9189 26.1456 29.7879C26.5226 28.6569 27.0936 27.0753 27.4148 26.2732C27.7359 25.4711 28.0694 24.5401 28.1559 24.2043C28.3328 23.517 28.3635 22.4861 28.224 21.9105C28.0756 21.2979 27.5832 20.331 26.7896 19.0939C26.375 18.4477 25.3541 16.6897 24.5209 15.1873C22.6511 11.8157 22.5477 11.6331 22.5081 11.6331C22.4905 11.6331 22.4762 11.6646 22.4762 11.7029ZM48.2159 12.0276C47.5702 13.1708 43.0599 22.0481 43.0174 22.2597C42.9615 22.537 42.9112 22.3633 44.6143 27.7707C45.286 29.9034 45.8639 31.6775 45.8987 31.713C45.9334 31.7485 46.9723 30.409 48.2073 28.7361C51.5738 24.1766 51.5818 24.1651 51.5818 23.8956C51.5818 23.7651 50.9557 21.2434 50.1904 18.292C49.4253 15.3405 48.7223 12.6273 48.6284 12.2627L48.4577 11.5996L48.2159 12.0276ZM13.5354 19.5263C13.495 19.5912 16.2802 29.5552 16.3612 29.6357C16.3782 29.6526 16.5188 29.2692 16.6735 28.7838C17.0558 27.5846 17.5069 25.5428 17.5069 25.0113V24.5765L16.2728 22.9421C13.7391 19.5868 13.6033 19.4172 13.5354 19.5263ZM57.167 19.9531C56.0745 21.209 54.1542 23.7327 53.9774 24.1451C53.9179 24.2837 53.8693 24.5411 53.8693 24.7172C53.8693 24.961 54.6288 28.0996 55.0206 29.4745C55.0617 29.6188 55.2891 29.7381 55.2891 29.6154C55.2891 29.5959 55.8214 27.3162 56.472 24.5494C57.1226 21.7825 57.6416 19.5055 57.6254 19.4894C57.6091 19.4733 57.4029 19.6819 57.167 19.9531ZM2.52028 45.1564C2.52028 45.1966 2.58252 45.2491 2.65848 45.273C3.0281 45.3895 3.03157 45.4275 3.05547 49.6083C3.0796 53.8274 3.05894 54.1086 2.71345 54.2649C2.60721 54.313 2.52028 54.3819 2.52028 54.4181C2.52028 54.4542 2.98172 54.4838 3.54569 54.4838C4.48543 54.4838 4.81009 54.4131 4.42595 54.292C4.06683 54.1788 4.05839 54.0756 4.05839 49.7836C4.05839 45.4915 4.06683 45.3884 4.42595 45.2752C4.81009 45.1541 4.48543 45.0833 3.54569 45.0833C2.96405 45.0833 2.52028 45.115 2.52028 45.1564ZM7.09516 45.1535C7.09516 45.1953 7.16938 45.2528 7.26009 45.2814C7.63057 45.3982 7.64729 45.5929 7.64729 49.7836C7.64729 53.9743 7.63057 54.1689 7.26009 54.2857C6.88716 54.4033 7.1409 54.4838 7.88393 54.4838C8.31775 54.4838 8.6727 54.469 8.6727 54.4507C8.6727 54.4325 8.56621 54.3118 8.43607 54.1826L8.19943 53.9475V50.3641C8.19943 48.3932 8.21687 46.798 8.23824 46.8192C8.25962 46.8404 9.03853 48.6177 9.96928 50.7687L11.6615 54.6797L11.7774 54.4055C12.3379 53.0789 15.3201 46.2112 15.3475 46.1837C15.367 46.1642 15.3728 47.8916 15.3604 50.0223C15.3364 54.1348 15.3324 54.1778 14.9633 54.2942C14.586 54.4131 14.9169 54.4838 15.8505 54.4838C16.7946 54.4838 17.1149 54.413 16.7257 54.2904C16.6432 54.2643 16.519 54.1245 16.4497 53.9795C16.3395 53.749 16.3238 53.2228 16.3238 49.7888C16.3238 45.5926 16.3405 45.3982 16.711 45.2814C17.0886 45.1624 16.8269 45.0833 16.0551 45.0833H15.2344L14.1538 47.6097C13.5594 48.9992 12.8208 50.7261 12.5124 51.447C12.2039 52.168 11.9255 52.7321 11.8937 52.7004C11.8619 52.6688 11.1126 50.9508 10.2285 48.8827L8.62135 45.1225L7.85821 45.1001C7.40293 45.0867 7.09516 45.1082 7.09516 45.1535ZM19.4789 45.1564C19.4789 45.1966 19.5445 45.2501 19.6246 45.2754C19.9386 45.3743 19.9521 45.5634 19.9521 49.8325V53.9475L19.7155 54.1826C19.5853 54.3118 19.4789 54.4325 19.4789 54.4507C19.4789 54.469 19.9403 54.4838 20.5043 54.4838C21.461 54.4838 21.7685 54.413 21.3647 54.2857C21.0316 54.1808 20.9775 53.8369 20.9775 51.8229V49.9403H21.5131C22.9517 49.9403 24.3046 49.1571 24.65 48.1246C24.917 47.3262 24.6914 46.3422 24.1201 45.8125C23.8636 45.5746 23.1386 45.2567 22.6371 45.1623C22.1055 45.0622 19.4789 45.0572 19.4789 45.1564ZM26.8144 45.1564C26.8144 45.1966 26.8858 45.2519 26.973 45.2794C27.3581 45.4008 27.3666 45.4976 27.3666 49.7836C27.3666 54.0695 27.3581 54.1663 26.973 54.2878C26.4763 54.4443 27.0406 54.4838 29.7723 54.4838H32.7302V53.6613C32.7302 53.2089 32.7003 52.8387 32.6638 52.8387C32.6273 52.8387 32.5564 52.9749 32.5061 53.1414C32.4064 53.4718 32.0856 53.8359 31.7983 53.9447C31.6979 53.9827 30.8903 54.0138 30.0038 54.0138H28.392V51.8204V49.6269H29.6579C31.0474 49.6269 31.3452 49.6993 31.4361 50.0592C31.4632 50.1661 31.5347 50.2536 31.595 50.2536C31.6821 50.2536 31.7048 50.0765 31.7048 49.3965C31.7048 48.5531 31.6178 48.2578 31.4771 48.6234C31.4388 48.7229 31.3287 48.8749 31.2326 48.961C31.0749 49.1023 30.9266 49.1201 29.7248 49.1425L28.392 49.1672V47.3559V45.5446L30.055 45.5685L31.7181 45.5925L31.9481 45.8484C32.0746 45.9891 32.1781 46.1741 32.1781 46.2596C32.1781 46.3451 32.2136 46.4151 32.2569 46.4151C32.3033 46.4151 32.3358 46.1409 32.3358 45.7492V45.0833H29.5751C27.9202 45.0833 26.8144 45.1126 26.8144 45.1564ZM35.0176 45.1501C35.0176 45.1937 35.0919 45.2528 35.1826 45.2814C35.5531 45.3982 35.5698 45.5926 35.5698 49.7888C35.5698 53.2228 35.554 53.749 35.4439 53.9795C35.3746 54.1245 35.2503 54.2643 35.1678 54.2904C34.7786 54.413 35.099 54.4838 36.043 54.4838C36.9766 54.4838 37.3075 54.4131 36.9303 54.2942C36.5863 54.1857 36.557 54.0029 36.5313 51.8008L36.5069 49.7052L36.7679 49.7064C36.9116 49.7071 37.075 49.7366 37.1312 49.772C37.1874 49.8074 37.8618 50.7673 38.6298 51.905C40.2849 54.3566 40.3604 54.4283 41.3342 54.4722C41.716 54.4895 41.9588 54.4701 41.9588 54.4223C41.9588 54.3793 41.8758 54.3235 41.7744 54.2982C41.6731 54.2729 41.4987 54.1808 41.3869 54.0935C41.2194 53.9626 38.3305 49.7898 38.3305 49.6788C38.3305 49.6598 38.4458 49.6224 38.5868 49.5957C39.0701 49.5041 39.6364 49.1812 39.9659 48.8095C40.3978 48.322 40.5699 47.8017 40.5213 47.1292C40.4559 46.2253 40.0198 45.6564 39.1192 45.3003C38.7261 45.1448 38.5135 45.126 36.8515 45.0997C35.6464 45.0807 35.0176 45.0979 35.0176 45.1501ZM44.1674 45.1564C44.1674 45.1966 44.2296 45.2491 44.3056 45.273C44.6752 45.3895 44.6787 45.4275 44.7026 49.6083C44.7267 53.8274 44.706 54.1086 44.3605 54.2649C44.2543 54.313 44.1674 54.3819 44.1674 54.4181C44.1674 54.4542 44.6288 54.4838 45.1928 54.4838C46.1325 54.4838 46.4572 54.4131 46.0731 54.292C45.7139 54.1788 45.7055 54.0756 45.7055 49.7836C45.7055 45.4915 45.7139 45.3884 46.0731 45.2752C46.4572 45.1541 46.1325 45.0833 45.1928 45.0833C44.6111 45.0833 44.1674 45.115 44.1674 45.1564ZM48.7423 45.1564C48.7423 45.1966 48.8132 45.2518 48.9001 45.2792C49.2414 45.3868 49.2531 45.5029 49.2944 49.196L49.3338 52.7212L49.5636 53.2154C49.8334 53.7957 50.3145 54.2542 50.8566 54.4473C51.0698 54.5233 51.5785 54.5963 52.056 54.6192C53.5629 54.6917 54.3968 54.3258 54.8739 53.3826C55.0143 53.105 55.1649 52.6488 55.2085 52.3687C55.2521 52.0887 55.2881 50.4556 55.2884 48.7396L55.2891 45.6196L55.5257 45.3846C55.6558 45.2554 55.7623 45.1347 55.7623 45.1165C55.7623 45.0982 55.4074 45.0833 54.9735 45.0833C54.2353 45.0833 53.9766 45.1638 54.3434 45.2794C54.4306 45.307 54.5572 45.4354 54.6247 45.565C54.7316 45.7703 54.7435 46.2362 54.7169 49.1826C54.6844 52.7918 54.6741 52.8908 54.2762 53.4351C53.919 53.9236 53.4201 54.1253 52.5658 54.1266C51.9419 54.1276 51.7971 54.1001 51.3945 53.9045C50.9112 53.6697 50.5765 53.2659 50.3837 52.6848C50.3218 52.4985 50.2817 51.3381 50.261 49.1408C50.2333 46.2148 50.2438 45.8451 50.3614 45.5989C50.4337 45.4477 50.5604 45.3028 50.6429 45.2767C51.0321 45.1541 50.7117 45.0833 49.7677 45.0833C49.186 45.0833 48.7423 45.115 48.7423 45.1564ZM58.2075 45.1535C58.2075 45.1953 58.2817 45.2528 58.3724 45.2814C58.7429 45.3982 58.7596 45.5929 58.7596 49.7836C58.7596 53.9743 58.7429 54.1689 58.3724 54.2857C57.9995 54.4033 58.2533 54.4838 58.9963 54.4838C59.4301 54.4838 59.785 54.469 59.785 54.4507C59.785 54.4325 59.6786 54.3118 59.5484 54.1826L59.3118 53.9475V50.3641C59.3118 48.3932 59.3292 46.798 59.3506 46.8192C59.372 46.8404 60.1509 48.6177 61.0816 50.7687L62.7739 54.6797L62.8897 54.4055C63.4502 53.0789 66.4325 46.2112 66.4599 46.1837C66.4793 46.1642 66.4852 47.8916 66.4727 50.0223C66.4487 54.1348 66.4448 54.1778 66.0757 54.2942C65.6984 54.4131 66.0293 54.4838 66.9629 54.4838C67.9069 54.4838 68.2273 54.413 67.8381 54.2904C67.7556 54.2643 67.6313 54.1245 67.562 53.9795C67.4519 53.749 67.4361 53.2228 67.4361 49.7888C67.4361 45.5926 67.4528 45.3982 67.8233 45.2814C68.201 45.1624 67.9393 45.0833 67.1675 45.0833H66.3467L65.2661 47.6097C64.6718 48.9992 63.9331 50.7261 63.6247 51.447C63.3162 52.168 63.0379 52.7321 63.0061 52.7004C62.9742 52.6688 62.2249 50.9508 61.3409 48.8827L59.7337 45.1225L58.9706 45.1001C58.5153 45.0867 58.2075 45.1082 58.2075 45.1535ZM20.9775 47.5231V49.4929L21.581 49.4475C22.6948 49.3638 23.5509 48.7677 23.7375 47.9458C23.8316 47.5314 23.7033 46.8412 23.466 46.4851C23.118 45.9628 22.1682 45.5599 21.2733 45.555L20.9775 45.5533V47.5231ZM36.5163 47.3551V49.1569H37.3355C38.0791 49.1569 38.1936 49.1367 38.5766 48.938C39.2945 48.5655 39.6491 47.7448 39.4798 46.8479C39.4149 46.5041 39.0388 46.0658 38.6323 45.8597C38.3268 45.705 37.4792 45.5603 36.8515 45.5558L36.5163 45.5533V47.3551ZM0.134253 57.9889C0.448815 58.0037 0.963488 58.0037 1.27797 57.9889C1.59253 57.974 1.33516 57.9618 0.706112 57.9618C0.0770675 57.9618 -0.180308 57.974 0.134253 57.9889Z" fill="#FFC915"/>
</svg>
