<svg width="33" height="23" viewBox="0 0 33 23" fill="none" xmlns="http://www.w3.org/2000/svg">
<path fill-rule="evenodd" clip-rule="evenodd" d="M16.7072 0.448058C16.2537 1.81058 12.7466 11.9849 12.7209 12.0124C12.7041 12.0305 11.6527 10.2532 10.3844 8.06298C9.11609 5.87273 8.05054 4.0446 8.01653 4.00045C7.96338 3.9315 7.94354 3.9664 7.87618 4.24755C7.83302 4.42757 7.32655 6.56849 6.75067 9.00513C6.17474 11.4417 5.6963 13.4422 5.68746 13.4506C5.67856 13.459 4.42393 11.9073 2.89929 10.0023C0.909589 7.51616 0.106401 6.54618 0.0534016 6.56552C0.00671677 6.5825 -0.0105848 6.6291 0.00636894 6.69201C0.0211351 6.74682 1.06889 10.288 2.3347 14.5613C4.19523 20.8426 4.65179 22.3312 4.71781 22.3316C4.76276 22.3319 4.80894 22.3057 4.82053 22.2732C4.83206 22.2408 5.16448 20.8401 5.55918 19.1607C5.95389 17.4812 6.28799 16.1081 6.30167 16.1094C6.31534 16.1106 7.29965 17.3299 8.4891 18.8188C9.67849 20.3078 10.6662 21.5111 10.684 21.4928C10.7018 21.4746 11.2266 19.9786 11.8504 18.1686C12.8614 15.2345 12.991 14.8892 13.0458 14.985C14.247 17.0888 16.8374 21.4895 16.8707 21.4829C16.8959 21.478 17.7207 19.99 18.7038 18.1763C19.7529 16.2406 20.5054 14.9033 20.5256 14.9384C20.5446 14.9713 21.0451 16.473 21.6379 18.2756C22.2307 20.0781 22.7214 21.5584 22.7284 21.565C22.7354 21.5716 23.735 20.2951 24.9497 18.7282C26.6113 16.5849 27.1675 15.8988 27.1958 15.9576C27.2164 16.0006 27.6239 17.4559 28.1013 19.1917C28.5787 20.9274 28.9921 22.3692 29.02 22.3957C29.0479 22.4222 29.084 22.4312 29.1003 22.4158C29.1321 22.3856 32.9999 6.78384 33 6.6855C33 6.6531 32.9721 6.62697 32.9379 6.62754C32.9037 6.62811 31.714 8.12736 30.2941 9.95926C28.2758 12.5632 27.705 13.2705 27.6784 13.2008C27.6596 13.1517 27.0774 11.0489 26.3847 8.52783C25.6919 6.00677 25.1098 3.95305 25.0911 3.96404C25.0724 3.97499 24.0981 5.75647 22.9259 7.92285C21.7538 10.0892 20.7835 11.8614 20.7697 11.861C20.7559 11.8605 19.9511 9.43569 18.9812 6.47246C18.0113 3.50924 17.1364 0.840699 17.037 0.542387L16.8563 0L16.7072 0.448058ZM15.6263 7.15724C14.974 9.05734 14.2887 10.9746 14.1033 11.4179C13.6985 12.3858 13.6005 12.7228 13.5974 13.1588C13.5931 13.7447 13.7971 14.2134 14.5414 15.3283C14.7319 15.6137 15.0287 16.0912 15.2008 16.3895C15.7464 17.3349 16.8035 19.148 16.8184 19.164C16.8431 19.1903 17.1355 18.6611 18.551 16.0286C20.1042 13.14 20.0234 13.3648 19.7789 12.6145C18.3568 8.25069 16.8758 3.76529 16.848 3.73785C16.8283 3.71846 16.2786 5.25719 15.6263 7.15724ZM8.38981 7.04589C8.38981 7.06904 8.00947 8.72242 7.54461 10.7202C7.07975 12.7179 6.69941 14.44 6.69941 14.5471C6.69941 14.7286 6.78756 14.8527 8.00117 16.3792C9.58497 18.3715 10.2307 19.1722 10.2535 19.1722C10.263 19.1722 10.4652 18.6151 10.7027 17.9341C10.9403 17.2532 11.3003 16.301 11.5027 15.8181C11.7051 15.3352 11.9153 14.7747 11.9698 14.5725C12.0813 14.1587 12.1007 13.538 12.0128 13.1915C11.9192 12.8226 11.6089 12.2405 11.1086 11.4957C10.8473 11.1066 10.2038 10.0482 9.67864 9.14369C8.50003 7.1138 8.4349 7.00386 8.40994 7.00386C8.39886 7.00386 8.38981 7.02277 8.38981 7.04589ZM24.614 7.24138C24.207 7.92964 21.3641 13.2743 21.3373 13.4017C21.3021 13.5686 21.2704 13.4641 22.3439 16.7197C22.7673 18.0037 23.1315 19.0718 23.1534 19.0931C23.1753 19.1146 23.8301 18.308 24.6086 17.3009C26.7306 14.5558 26.7356 14.5488 26.7356 14.3866C26.7356 14.3081 26.341 12.7899 25.8586 11.0129C25.3763 9.23595 24.9332 7.60242 24.874 7.38287L24.7664 6.98368L24.614 7.24138ZM2.75426 11.756C2.72881 11.7951 4.48434 17.7941 4.5354 17.8425C4.54614 17.8527 4.63473 17.6219 4.73228 17.3296C4.97326 16.6076 5.2576 15.3783 5.2576 15.0583V14.7965L4.47971 13.8126C2.88268 11.7925 2.79707 11.6904 2.75426 11.756ZM30.256 12.013C29.5674 12.7691 28.3571 14.2885 28.2456 14.5368C28.2081 14.6203 28.1774 14.7753 28.1774 14.8812C28.1774 15.028 28.6562 16.9177 28.9032 17.7455C28.9291 17.8323 29.0723 17.9042 29.0723 17.8303C29.0723 17.8185 29.4079 16.446 29.818 14.7802C30.2281 13.1144 30.5552 11.7435 30.545 11.7338C30.5347 11.7241 30.4047 11.8497 30.256 12.013Z" fill="#FFC915"/>
</svg>
