<svg width="54" height="9" viewBox="0 0 54 9" fill="none" xmlns="http://www.w3.org/2000/svg">
<path d="M0.113966 1.05752C0.0513243 1.03785 0 0.994634 0 0.961546C0 0.927425 0.365962 0.901367 0.84563 0.901367C1.62062 0.901367 1.88837 0.959607 1.57158 1.05932C1.27541 1.15253 1.26845 1.23747 1.26845 4.77137C1.26845 8.30527 1.27541 8.39021 1.57158 8.48342C1.88837 8.58313 1.62062 8.64138 0.84563 8.64138C0.380533 8.64138 0 8.617 0 8.58726C0 8.55746 0.0716855 8.50071 0.159306 8.4611C0.444218 8.33243 0.461261 8.10088 0.441356 4.62703C0.421647 1.18478 0.418783 1.1535 0.113966 1.05752Z" fill="#FFC915"/>
<path d="M3.90884 1.06449C3.83403 1.04094 3.77282 0.993537 3.77282 0.959158C3.77282 0.921877 4.02664 0.90414 4.4021 0.91517L5.03145 0.933615L6.35689 4.02962C7.08595 5.73243 7.70386 7.14698 7.73014 7.17297C7.75635 7.19903 7.98591 6.73463 8.24031 6.14097L9.59399 2.9815L10.4852 0.901367H11.162C11.7985 0.901367 12.0143 0.966447 11.7029 1.06449C11.3973 1.16066 11.3835 1.32068 11.3835 4.7757C11.3835 7.60313 11.3965 8.03637 11.4874 8.22613C11.5445 8.34552 11.647 8.46065 11.715 8.48213C12.036 8.58307 11.7718 8.64138 10.9933 8.64138C10.2233 8.64138 9.95046 8.58313 10.2616 8.48522C10.566 8.38938 10.5693 8.35397 10.589 4.96791C10.5993 3.21357 10.5945 1.79134 10.5784 1.8074C10.5559 1.83004 8.09643 7.48463 7.63419 8.57688L7.53863 8.80263L6.14308 5.58246C5.3755 3.81142 4.73314 2.34804 4.71551 2.33062C4.69788 2.31315 4.68351 3.62656 4.68351 5.24932V8.19981L4.87865 8.39331C4.98598 8.49973 5.07379 8.59907 5.07379 8.61409C5.07379 8.62912 4.78107 8.64138 4.42331 8.64138C3.81055 8.64138 3.60129 8.57507 3.90884 8.47826C4.21437 8.38209 4.22816 8.22181 4.22816 4.77137C4.22816 1.32094 4.21437 1.16066 3.90884 1.06449Z" fill="#FFC915"/>
<path d="M20.1658 1.06281C20.0939 1.04017 20.035 0.994634 20.035 0.961546C20.035 0.92549 20.9469 0.901367 22.3117 0.901367H24.5884V1.44962C24.5884 1.77212 24.5616 1.99787 24.5233 1.99787C24.4876 1.99787 24.4583 1.94027 24.4583 1.8699C24.4583 1.79947 24.3729 1.64712 24.2686 1.53127L24.0789 1.32062L22.7075 1.30088L21.336 1.28114V2.77252V4.26389L22.4352 4.2435C23.4262 4.22512 23.5485 4.21042 23.6786 4.09412C23.7579 4.02317 23.8486 3.89804 23.8802 3.81613C23.9963 3.51511 24.068 3.75821 24.068 4.45268C24.068 5.01254 24.0493 5.15837 23.9775 5.15837C23.9277 5.15837 23.8688 5.08633 23.8464 4.99829C23.7714 4.70197 23.5259 4.64237 22.38 4.64237H21.336V6.44838V8.25438H22.6652C23.3963 8.25438 24.0623 8.22877 24.1451 8.19749C24.3821 8.1079 24.6466 7.8081 24.7288 7.53604C24.7703 7.39898 24.8287 7.28688 24.8589 7.28688C24.889 7.28688 24.9136 7.59164 24.9136 7.96413V8.64138H22.4743C20.2215 8.64138 19.7561 8.60881 20.1658 8.47994C20.4834 8.37996 20.4903 8.30024 20.4903 4.77137C20.4903 1.24251 20.4834 1.16278 20.1658 1.06281Z" fill="#FFC915"/>
<path d="M34.4596 1.05752C34.397 1.03785 34.3457 0.994634 34.3457 0.961546C34.3457 0.927425 34.7116 0.901367 35.1913 0.901367C35.9663 0.901367 36.234 0.959607 35.9172 1.05932C35.6211 1.15253 35.6141 1.23747 35.6141 4.77137C35.6141 8.30527 35.6211 8.39021 35.9172 8.48342C36.234 8.58313 35.9663 8.64138 35.1913 8.64138C34.7262 8.64138 34.3457 8.617 34.3457 8.58726C34.3457 8.55746 34.4174 8.50071 34.505 8.4611C34.7899 8.33243 34.8069 8.10088 34.787 4.62703C34.7673 1.18478 34.7645 1.1535 34.4596 1.05752Z" fill="#FFC915"/>
<path d="M38.2486 1.06262C38.177 1.0401 38.1185 0.994634 38.1185 0.961546C38.1185 0.927425 38.4844 0.901367 38.9641 0.901367C39.7427 0.901367 40.0068 0.959673 39.6859 1.06062C39.6179 1.08209 39.5134 1.20142 39.4538 1.32591C39.3568 1.52857 39.3482 1.833 39.3709 4.24215C39.388 6.05132 39.4211 7.00675 39.4721 7.16013C39.6312 7.63859 39.9072 7.97103 40.3057 8.1644C40.6377 8.32545 40.7572 8.3481 41.2717 8.34726C41.9762 8.34616 42.3877 8.18007 42.6822 7.77785C43.0104 7.32977 43.0188 7.24825 43.0456 4.27653C43.0676 1.85061 43.0577 1.46697 42.9696 1.29798C42.914 1.19129 42.8096 1.08551 42.7376 1.06281C42.4352 0.967671 42.6485 0.901367 43.2573 0.901367C43.6151 0.901367 43.9078 0.913618 43.9078 0.928646C43.9078 0.943675 43.82 1.04301 43.7127 1.14943L43.5175 1.34293L43.517 3.91178C43.5167 5.32466 43.4871 6.66929 43.4511 6.89988C43.4151 7.13046 43.2909 7.50611 43.1752 7.73464C42.7817 8.51122 42.094 8.81256 40.8513 8.75283C40.4575 8.73394 40.038 8.67388 39.8621 8.61132C39.4151 8.45226 39.0183 8.07481 38.7958 7.59699L38.6063 7.19013L38.5738 4.28762C38.5397 1.24683 38.5301 1.15124 38.2486 1.06262Z" fill="#FFC915"/>
<path d="M46.0603 1.06449C45.9855 1.04094 45.9243 0.993537 45.9243 0.959158C45.9243 0.921877 46.1781 0.90414 46.5536 0.91517L47.1829 0.933615L48.5084 4.02962C49.2374 5.73243 49.8553 7.14698 49.8816 7.17297C49.9078 7.19903 50.1374 6.73463 50.3918 6.14097L51.7454 2.9815L52.6366 0.901367H53.3134C53.9499 0.901367 54.1658 0.966447 53.8543 1.06449C53.5488 1.16066 53.535 1.32068 53.535 4.7757C53.535 7.60313 53.548 8.03637 53.6388 8.22613C53.696 8.34552 53.7984 8.46065 53.8665 8.48213C54.1874 8.58307 53.9233 8.64138 53.1447 8.64138C52.3748 8.64138 52.1019 8.58313 52.413 8.48522C52.7175 8.38938 52.7207 8.35397 52.7405 4.96791C52.7508 3.21357 52.7459 1.79134 52.7299 1.8074C52.7073 1.83004 50.2479 7.48463 49.7857 8.57688L49.6901 8.80263L48.2945 5.58246C47.527 3.81142 46.8846 2.34804 46.867 2.33062C46.8494 2.31315 46.835 3.62656 46.835 5.24932V8.19981L47.0301 8.39331C47.1375 8.49973 47.2253 8.59907 47.2253 8.61409C47.2253 8.62912 46.9326 8.64138 46.5748 8.64138C45.962 8.64138 45.7528 8.57507 46.0603 8.47826C46.3659 8.38209 46.3796 8.22181 46.3796 4.77137C46.3796 1.32094 46.3659 1.16066 46.0603 1.06449Z" fill="#FFC915"/>
<path fill-rule="evenodd" clip-rule="evenodd" d="M13.9855 0.961546C13.9855 0.994634 14.0396 1.03869 14.1057 1.05952C14.3646 1.14099 14.3758 1.29662 14.3758 4.81162V8.19981L14.1806 8.39331C14.0733 8.49973 13.9855 8.59907 13.9855 8.61409C13.9855 8.62912 14.366 8.64138 14.8311 8.64138C15.6201 8.64138 15.8737 8.58307 15.5407 8.47826C15.266 8.39183 15.2214 8.10874 15.2214 6.45044V4.90037H15.6631C16.8494 4.90037 17.9652 4.25557 18.25 3.40546C18.4702 2.74807 18.2842 1.93788 17.8131 1.50173C17.6015 1.30584 17.0036 1.04411 16.59 0.966383C16.1517 0.883952 13.9855 0.879888 13.9855 0.961546ZM15.2214 4.53201V2.91016V1.28837L15.4653 1.28972C16.2033 1.29378 16.9866 1.62551 17.2736 2.05553C17.4693 2.34875 17.5751 2.91706 17.4975 3.2582C17.3436 3.93494 16.6376 4.42578 15.7191 4.49467L15.2214 4.53201Z" fill="#FFC915"/>
<path fill-rule="evenodd" clip-rule="evenodd" d="M26.8 0.956321C26.8 0.992247 26.8613 1.04094 26.9361 1.06449C27.2416 1.16066 27.2554 1.32068 27.2554 4.7757C27.2554 7.60313 27.2424 8.03637 27.1516 8.22613C27.0944 8.34552 26.9919 8.46065 26.9239 8.48213C26.6029 8.58307 26.8671 8.64138 27.6457 8.64138C28.4156 8.64138 28.6885 8.58313 28.3773 8.48522C28.0937 8.39589 28.0695 8.24541 28.0483 6.43225L28.0282 4.70687L28.2435 4.70784C28.3619 4.70842 28.4967 4.73267 28.543 4.76183C28.5894 4.79098 29.1456 5.5813 29.7789 6.5181C31.1439 8.53663 31.2061 8.59565 32.0092 8.63183C32.324 8.64602 32.5243 8.63002 32.5243 8.59068C32.5243 8.55533 32.4559 8.50935 32.3722 8.48851C32.2886 8.46768 32.1448 8.39183 32.0526 8.31998C31.9145 8.2122 29.5321 4.77653 29.5321 4.68507C29.5321 4.66946 29.6272 4.63869 29.7435 4.6167C30.142 4.5413 30.609 4.27544 30.8808 3.96932C31.237 3.568 31.3789 3.13959 31.3388 2.58585C31.2849 1.84159 30.9252 1.37319 30.1826 1.08003C29.8584 0.952001 29.683 0.936516 28.3124 0.914844C27.3185 0.89917 26.8 0.913364 26.8 0.956321ZM28.036 4.25537V2.77187V1.28837L28.3124 1.29037C28.8301 1.29411 29.5291 1.41324 29.781 1.54063C30.1162 1.71026 30.4264 2.07121 30.4799 2.35423C30.6195 3.0927 30.3271 3.76846 29.735 4.07516C29.4192 4.23873 29.3248 4.25537 28.7116 4.25537H28.036Z" fill="#FFC915"/>
</svg>
