<svg width="195" height="613" viewBox="0 0 195 613" fill="none" xmlns="http://www.w3.org/2000/svg">
<path opacity="0.2" fill-rule="evenodd" clip-rule="evenodd" d="M98.7245 477.285C96.0449 485.69 75.3209 548.452 75.169 548.623C75.0697 548.734 68.8567 537.77 61.3623 524.259C53.8678 510.748 47.5713 499.471 47.3704 499.198C47.0563 498.773 46.9391 498.988 46.541 500.723C46.286 501.833 43.2932 515.04 39.8903 530.071C36.4871 545.102 33.66 557.442 33.6077 557.494C33.5551 557.546 26.1414 547.974 17.1322 536.222C5.37485 520.886 0.628733 514.902 0.315557 515.022C0.039692 515.126 -0.0625468 515.414 0.0376342 515.802C0.124889 516.14 6.31614 537.985 13.7959 564.346C24.79 603.094 27.4878 612.276 27.878 612.279C28.1436 612.281 28.4165 612.119 28.4849 611.919C28.5531 611.719 30.5174 603.078 32.8497 592.718C35.1821 582.358 37.1563 573.888 37.2371 573.896C37.3179 573.903 43.1343 581.424 50.1628 590.61C57.1911 599.794 63.0274 607.217 63.1326 607.105C63.2378 606.992 66.3393 597.764 70.0248 586.598C75.999 568.499 76.7652 566.368 77.0886 566.96C84.1868 579.937 99.4939 607.085 99.6908 607.044C99.8391 607.013 104.713 597.834 110.522 586.646C116.722 574.705 121.168 566.456 121.288 566.672C121.4 566.875 124.357 576.139 127.86 587.258C131.363 598.378 134.263 607.509 134.304 607.55C134.345 607.591 140.252 599.716 147.43 590.051C157.249 576.829 160.535 572.596 160.702 572.959C160.824 573.224 163.232 582.202 166.053 592.91C168.874 603.617 171.317 612.511 171.482 612.674C171.647 612.838 171.86 612.893 171.956 612.798C172.144 612.612 195 516.369 195 515.762C195 515.562 194.835 515.401 194.633 515.404C194.431 515.408 187.401 524.656 179.011 535.957C167.084 552.02 163.711 556.383 163.554 555.953C163.443 555.651 160.003 542.679 155.909 527.127C151.816 511.575 148.376 498.906 148.266 498.974C148.155 499.041 142.398 510.031 135.471 523.395C128.545 536.759 122.811 547.691 122.73 547.688C122.649 547.685 117.893 532.727 112.161 514.448C106.43 496.168 101.26 479.707 100.673 477.866L99.6056 474.521L98.7245 477.285ZM92.337 518.672C88.4828 530.393 84.433 542.22 83.3374 544.955C80.9454 550.926 80.3667 553.005 80.3482 555.694C80.3229 559.309 81.528 562.2 85.9266 569.077C87.0521 570.838 88.8057 573.783 89.8228 575.624C93.0468 581.455 99.2933 592.64 99.3814 592.739C99.5271 592.901 101.255 589.637 109.62 573.397C118.798 555.578 118.32 556.965 116.875 552.336C108.472 525.417 99.7207 497.748 99.5562 497.579C99.4402 497.459 96.1915 506.951 92.337 518.672ZM49.5761 517.985C49.5761 518.128 47.3287 528.327 44.5818 540.651C41.8349 552.974 39.5874 563.597 39.5874 564.258C39.5874 565.378 40.1083 566.143 47.2796 575.56C56.6385 587.85 60.4542 592.789 60.589 592.789C60.6451 592.789 61.8397 589.353 63.2434 585.152C64.6474 580.952 66.7744 575.077 67.9704 572.099C69.1664 569.12 70.4085 565.662 70.7308 564.415C71.3898 561.862 71.504 558.033 70.9846 555.896C70.4317 553.62 68.5979 550.03 65.6418 545.435C64.0977 543.035 60.2952 536.506 57.192 530.926C50.2275 518.404 49.8426 517.726 49.6951 517.726C49.6296 517.726 49.5761 517.842 49.5761 517.985ZM145.447 519.191C143.042 523.437 126.243 556.407 126.084 557.193C125.876 558.222 125.688 557.577 132.032 577.66C134.534 585.581 136.686 592.17 136.816 592.302C136.945 592.434 140.814 587.459 145.414 581.246C157.953 564.312 157.983 564.269 157.983 563.268C157.983 562.784 155.651 553.418 152.801 542.457C149.951 531.495 147.333 521.418 146.983 520.064L146.347 517.601L145.447 519.191ZM16.2752 547.041C16.1248 547.282 26.4984 584.288 26.8001 584.587C26.8635 584.65 27.3871 583.226 27.9635 581.423C29.3875 576.969 31.0676 569.386 31.0676 567.412V565.797L26.471 559.727C17.034 547.266 16.5281 546.636 16.2752 547.041ZM178.786 548.626C174.717 553.29 167.564 562.663 166.906 564.195C166.684 564.71 166.503 565.666 166.503 566.319C166.503 567.225 169.332 578.882 170.791 583.988C170.944 584.524 171.791 584.967 171.791 584.511C171.791 584.439 173.774 575.972 176.197 565.696C178.621 555.42 180.554 546.964 180.493 546.904C180.433 546.844 179.664 547.619 178.786 548.626Z" fill="#FFC915"/>
<path opacity="0.2" fill-rule="evenodd" clip-rule="evenodd" d="M99.8163 291.602C98.0299 297.205 84.2139 339.047 84.1127 339.161C84.0465 339.235 79.9045 331.926 74.9082 322.918C69.9118 313.911 65.7142 306.393 65.5803 306.211C65.3709 305.928 65.2927 306.071 65.0274 307.227C64.8574 307.968 62.8622 316.772 60.5935 326.793C58.3247 336.814 56.44 345.04 56.4051 345.075C56.3701 345.11 51.4276 338.728 45.4214 330.894C37.5832 320.67 34.4192 316.681 34.2104 316.76C34.0265 316.83 33.9583 317.022 34.0251 317.28C34.0833 317.506 38.2108 332.069 43.1973 349.643C50.5267 375.475 52.3252 381.597 52.5853 381.598C52.7624 381.6 52.9443 381.492 52.99 381.358C53.0354 381.225 54.3449 375.465 55.8998 368.558C57.4547 361.651 58.7709 356.004 58.8248 356.009C58.8786 356.014 62.7562 361.029 67.4419 367.152C72.1274 373.275 76.0183 378.224 76.0884 378.149C76.1585 378.074 78.2262 371.922 80.6832 364.478C84.666 352.411 85.1768 350.991 85.3924 351.385C90.1245 360.037 100.329 378.135 100.461 378.108C100.559 378.088 103.809 371.968 107.682 364.509C111.815 356.549 114.779 351.049 114.859 351.194C114.933 351.329 116.905 357.505 119.24 364.918C121.575 372.331 123.508 378.418 123.536 378.445C123.564 378.473 127.501 373.223 132.287 366.779C138.833 357.965 141.024 355.143 141.135 355.385C141.216 355.562 142.821 361.547 144.702 368.685C146.583 375.824 148.211 381.753 148.321 381.862C148.431 381.971 148.573 382.008 148.638 381.944C148.763 381.82 164 317.658 164 317.254C164 317.12 163.89 317.013 163.755 317.015C163.621 317.018 158.934 323.183 153.34 330.717C145.389 341.426 143.141 344.334 143.036 344.048C142.962 343.846 140.669 335.198 137.94 324.83C135.211 314.462 132.917 306.016 132.844 306.062C132.77 306.107 128.932 313.433 124.314 322.342C119.697 331.251 115.874 338.539 115.82 338.538C115.766 338.536 112.595 328.564 108.774 316.377C104.953 304.191 101.507 293.217 101.115 291.99L100.404 289.759L99.8163 291.602ZM95.558 319.194C92.9885 327.008 90.2887 334.893 89.5583 336.716C87.9636 340.696 87.5778 342.082 87.5655 343.875C87.5486 346.285 88.352 348.212 91.2844 352.797C92.0347 353.971 93.2038 355.935 93.8819 357.161C96.0312 361.049 100.196 368.506 100.254 368.571C100.351 368.68 101.503 366.503 107.08 355.677C113.198 343.798 112.88 344.722 111.917 341.637C106.315 323.69 100.48 305.244 100.371 305.131C100.293 305.052 98.1277 311.38 95.558 319.194ZM67.0508 318.736C67.0508 318.831 65.5525 325.63 63.7212 333.846C61.8899 342.062 60.3916 349.144 60.3916 349.584C60.3916 350.331 60.7389 350.841 65.5197 357.119C71.759 365.312 74.3028 368.605 74.3927 368.605C74.4301 368.605 75.2264 366.314 76.1622 363.514C77.0982 360.713 78.5163 356.797 79.3136 354.811C80.1109 352.825 80.939 350.52 81.1539 349.689C81.5932 347.987 81.6694 345.435 81.3231 344.009C80.9545 342.493 79.7319 340.099 77.7612 337.036C76.7318 335.435 74.1968 331.083 72.128 327.363C67.485 319.015 67.2284 318.563 67.1301 318.563C67.0864 318.563 67.0508 318.641 67.0508 318.736ZM130.964 319.54C129.361 322.37 118.162 344.35 118.056 344.874C117.917 345.56 117.792 345.13 122.021 358.519C123.689 363.8 125.124 368.192 125.21 368.28C125.297 368.368 127.876 365.051 130.943 360.91C139.302 349.62 139.322 349.592 139.322 348.925C139.322 348.601 137.767 342.358 135.867 335.05C133.967 327.742 132.222 321.024 131.988 320.122L131.565 318.48L130.964 319.54ZM44.8501 338.106C44.7499 338.267 51.6656 362.938 51.8667 363.137C51.909 363.179 52.258 362.229 52.6423 361.027C53.5916 358.058 54.7117 353.003 54.7117 351.687V350.61L51.6474 346.564C45.356 338.256 45.0188 337.836 44.8501 338.106ZM153.19 339.163C150.478 342.272 145.71 348.521 145.271 349.542C145.123 349.885 145.002 350.523 145.002 350.959C145.002 351.562 146.888 359.334 147.861 362.738C147.963 363.095 148.527 363.39 148.527 363.087C148.527 363.038 149.849 357.394 151.465 350.543C153.08 343.692 154.369 338.055 154.329 338.015C154.288 337.975 153.776 338.492 153.19 339.163Z" fill="#FFC915"/>
<path opacity="0.2" fill-rule="evenodd" clip-rule="evenodd" d="M99.0463 128.947C97.8508 132.669 88.6047 160.464 88.5369 160.539C88.4926 160.589 85.7207 155.733 82.377 149.75C79.0333 143.766 76.2241 138.772 76.1345 138.652C75.9944 138.463 75.9421 138.559 75.7645 139.327C75.6507 139.818 74.3154 145.667 72.7972 152.324C71.2789 158.98 70.0175 164.445 69.9942 164.468C69.9707 164.491 66.6631 160.252 62.6436 155.048C57.398 148.256 55.2805 145.606 55.1408 145.659C55.0177 145.705 54.9721 145.833 55.0168 146.005C55.0557 146.154 57.818 155.828 61.1551 167.503C66.0602 184.662 67.2638 188.729 67.4379 188.73C67.5564 188.731 67.6781 188.659 67.7087 188.571C67.7391 188.482 68.6154 184.656 69.656 180.067C70.6966 175.479 71.5774 171.728 71.6135 171.732C71.6495 171.735 74.2445 175.066 77.3803 179.134C80.516 183.201 83.1199 186.488 83.1669 186.439C83.2138 186.389 84.5975 182.302 86.2418 177.357C88.9072 169.342 89.2491 168.398 89.3934 168.66C92.5603 174.407 99.3896 186.43 99.4774 186.412C99.5436 186.398 101.718 182.333 104.31 177.378C107.076 172.09 109.06 168.437 109.113 168.533C109.163 168.623 110.483 172.725 112.045 177.649C113.608 182.574 114.902 186.618 114.92 186.636C114.939 186.654 117.574 183.166 120.776 178.886C125.157 173.031 126.623 171.156 126.698 171.317C126.752 171.434 127.827 175.41 129.085 180.152C130.344 184.894 131.434 188.833 131.507 188.905C131.581 188.977 131.676 189.002 131.719 188.96C131.803 188.877 142 146.255 142 145.987C142 145.898 141.926 145.827 141.836 145.828C141.746 145.83 138.61 149.926 134.866 154.93C129.545 162.044 128.041 163.976 127.97 163.786C127.921 163.652 126.386 157.907 124.56 151.02C122.733 144.133 121.199 138.522 121.149 138.552C121.1 138.582 118.531 143.449 115.441 149.367C112.351 155.285 109.793 160.127 109.757 160.125C109.72 160.124 107.598 153.5 105.041 145.405C102.484 137.31 100.178 130.019 99.9157 129.205L99.4394 127.723L99.0463 128.947ZM96.1965 147.275C94.477 152.466 92.6701 157.704 92.1813 158.915C91.1141 161.559 90.8559 162.48 90.8477 163.671C90.8364 165.272 91.374 166.552 93.3365 169.598C93.8386 170.377 94.621 171.682 95.0748 172.497C96.5132 175.08 99.3001 180.033 99.3394 180.076C99.4044 180.148 100.175 178.703 103.907 171.511C108.002 163.62 107.789 164.234 107.144 162.184C103.395 150.263 99.4908 138.009 99.4174 137.934C99.3656 137.881 97.9162 142.085 96.1965 147.275ZM77.1186 146.971C77.1186 147.035 76.1159 151.551 74.8903 157.009C73.6648 162.466 72.6621 167.171 72.6621 167.464C72.6621 167.96 72.8945 168.299 76.094 172.469C80.2695 177.911 81.9719 180.099 82.032 180.099C82.0571 180.099 82.59 178.577 83.2163 176.717C83.8427 174.857 84.7916 172.255 85.3252 170.936C85.8589 169.617 86.413 168.085 86.5568 167.533C86.8508 166.403 86.9018 164.707 86.6701 163.76C86.4234 162.753 85.6052 161.162 84.2864 159.128C83.5974 158.065 81.9009 155.173 80.5164 152.702C77.4092 147.157 77.2375 146.856 77.1717 146.856C77.1424 146.856 77.1186 146.908 77.1186 146.971ZM119.892 147.505C118.819 149.386 111.324 163.987 111.253 164.335C111.16 164.791 111.076 164.505 113.907 173.399C115.023 176.907 115.983 179.825 116.041 179.883C116.098 179.941 117.825 177.738 119.877 174.987C125.471 167.488 125.485 167.468 125.485 167.025C125.485 166.811 124.444 162.663 123.173 157.809C121.901 152.954 120.733 148.492 120.577 147.892L120.293 146.801L119.892 147.505ZM62.2612 159.839C62.1941 159.946 66.8223 176.334 66.957 176.466C66.9853 176.494 67.2188 175.864 67.476 175.065C68.1113 173.093 68.8609 169.734 68.8609 168.86V168.145L66.8102 165.457C62.5998 159.938 62.3741 159.659 62.2612 159.839ZM134.766 160.541C132.951 162.606 129.76 166.757 129.466 167.436C129.367 167.664 129.286 168.087 129.286 168.377C129.286 168.778 130.548 173.94 131.199 176.201C131.268 176.439 131.645 176.635 131.645 176.433C131.645 176.401 132.53 172.651 133.611 168.101C134.692 163.55 135.555 159.805 135.528 159.778C135.501 159.752 135.158 160.095 134.766 160.541Z" fill="#FFC915"/>
<path opacity="0.2" fill-rule="evenodd" clip-rule="evenodd" d="M99.2528 1.08617C98.4588 3.57665 92.3182 22.1737 92.2732 22.2242C92.2437 22.2572 90.4028 19.0086 88.1821 15.0051C85.9614 11.0017 84.0958 7.66011 84.0362 7.57942C83.9432 7.45338 83.9084 7.51718 83.7905 8.03107C83.7149 8.36013 82.8281 12.2734 81.8198 16.7272C80.8114 21.1809 79.9737 24.8375 79.9582 24.8529C79.9426 24.8683 77.7459 22.0319 75.0764 18.5498C71.5926 14.0056 70.1863 12.2326 70.0935 12.268C70.0118 12.299 69.9815 12.3842 70.0112 12.4992C70.037 12.5994 71.8715 19.0721 74.0878 26.8831C77.3455 38.3644 78.1449 41.0853 78.2605 41.0861C78.3392 41.0867 78.42 41.0386 78.4403 40.9793C78.4605 40.9201 79.0425 38.3599 79.7336 35.2901C80.4247 32.2202 81.0097 29.7104 81.0336 29.7128C81.0576 29.715 82.781 31.9436 84.8636 34.6652C86.9462 37.3867 88.6755 39.5862 88.7067 39.5528C88.7378 39.5196 89.6568 36.7852 90.7489 33.4767C92.5191 28.1136 92.7461 27.4824 92.842 27.6576C94.9452 31.503 99.4808 39.5469 99.5391 39.5348C99.5831 39.5258 101.027 36.8059 102.749 33.4907C104.586 29.9525 105.903 27.5082 105.939 27.5724C105.972 27.6325 106.848 30.3774 107.886 33.6722C108.924 36.967 109.783 39.6727 109.795 39.6847C109.808 39.6969 111.558 37.3636 113.685 34.4996C116.594 30.5818 117.568 29.3278 117.617 29.4353C117.653 29.5139 118.367 32.174 119.203 35.3468C120.039 38.5194 120.763 41.1548 120.811 41.2032C120.86 41.2516 120.923 41.268 120.952 41.2399C121.008 41.1847 127.78 12.667 127.78 12.4873C127.78 12.4281 127.731 12.3803 127.671 12.3813C127.611 12.3824 125.528 15.1228 123.042 18.4712C119.508 23.2309 118.509 24.5237 118.462 24.3963C118.429 24.3066 117.41 20.463 116.197 15.8548C114.984 11.2467 113.965 7.49278 113.932 7.51287C113.899 7.53287 112.194 10.7891 110.141 14.749C108.089 18.7088 106.39 21.948 106.366 21.9473C106.342 21.9464 104.933 17.5142 103.234 12.0979C101.536 6.68155 100.004 1.80385 99.8302 1.25858L99.5139 0.267181L99.2528 1.08617ZM97.3602 13.3496C96.2181 16.8226 95.0181 20.3271 94.6935 21.1374C93.9848 22.9066 93.8133 23.5226 93.8078 24.3195C93.8003 25.3905 94.1574 26.2472 95.4607 28.2851C95.7942 28.8066 96.3138 29.6795 96.6152 30.2248C97.5705 31.9527 99.4214 35.2669 99.4475 35.2961C99.4907 35.3443 100.003 34.3769 102.481 29.5651C105.201 24.2851 105.059 24.696 104.631 23.3246C102.141 15.3482 99.548 7.14958 99.4993 7.09941C99.4649 7.06398 98.5023 9.87654 97.3602 13.3496ZM84.6898 13.146C84.6898 13.1883 84.0239 16.2105 83.2099 19.862C82.396 23.5136 81.7301 26.6613 81.7301 26.8571C81.7301 27.1889 81.8844 27.4157 84.0093 30.206C86.7824 33.8475 87.913 35.3111 87.953 35.3111C87.9696 35.3111 88.3236 34.2928 88.7395 33.0481C89.1555 31.8035 89.7858 30.063 90.1401 29.1803C90.4945 28.2976 90.8626 27.2731 90.9581 26.9035C91.1533 26.1472 91.1872 25.0127 91.0333 24.3792C90.8695 23.705 90.3261 22.6411 89.4502 21.2796C88.9926 20.5684 87.8659 18.6338 86.9464 16.9805C84.8828 13.2702 84.7687 13.0692 84.725 13.0692C84.7056 13.0692 84.6898 13.1038 84.6898 13.146ZM113.097 13.5033C112.384 14.7614 107.407 24.5307 107.36 24.7635C107.298 25.0686 107.242 24.8775 109.122 30.8282C109.863 33.1753 110.501 35.1276 110.54 35.1666C110.578 35.2057 111.724 33.7316 113.087 31.8907C116.803 26.8731 116.812 26.8603 116.812 26.5638C116.812 26.4202 116.121 23.6451 115.276 20.3971C114.432 17.1491 113.656 14.1633 113.552 13.762L113.364 13.0323L113.097 13.5033ZM74.8225 21.7554C74.7779 21.8269 77.8517 32.7921 77.9411 32.8806C77.9599 32.8992 78.115 32.4773 78.2858 31.9431C78.7077 30.6234 79.2056 28.3764 79.2056 27.7916V27.3131L77.8436 25.5145C75.0473 21.8221 74.8974 21.6354 74.8225 21.7554ZM122.976 22.2251C121.77 23.6072 119.651 26.3845 119.455 26.8383C119.39 26.9909 119.336 27.2742 119.336 27.4679C119.336 27.7362 120.174 31.1902 120.607 32.7033C120.652 32.8621 120.903 32.9934 120.903 32.8583C120.903 32.8368 121.491 30.328 122.209 27.2832C122.927 24.2383 123.499 21.7326 123.482 21.7148C123.464 21.6971 123.236 21.9267 122.976 22.2251Z" fill="#FFC915"/>
</svg>
